<?xml version="1.0" encoding="utf-8"?><svg xmlns="http://www.w3.org/2000/svg" xmlns:xlink="http://www.w3.org/1999/xlink"><symbol viewBox="0 0 21 21" id="close" xmlns="http://www.w3.org/2000/svg"><path d="M2.37.63l18.118 18.137-1.86 1.861L.512 2.491z"/><path d="M.51 18.751L18.648.632l1.861 1.86L2.372 20.61z"/></symbol><symbol viewBox="0 0 22 13" id="expand-arrow" xmlns="http://www.w3.org/2000/svg"><path d="M11 12.638c-.379 0-.758-.145-1.047-.434L.85 3.102a1.482 1.482 0 112.097-2.097L11 9.06l8.054-8.054a1.482 1.482 0 112.097 2.096l-9.102 9.103c-.29.289-.67.433-1.048.433z"/></symbol><symbol viewBox="0 0 25 49" id="facebook" xmlns="http://www.w3.org/2000/svg"><path d="M19.645 8.14h4.38V.511C23.268.408 20.67.174 17.643.174c-6.314 0-10.64 3.972-10.64 11.271v6.718H.036v8.527h6.968v21.456h8.543V26.692h6.686l1.061-8.527h-7.749v-5.874c.002-2.465.666-4.152 4.1-4.152z"/><defs><linearGradient id="ca" x1="-12.166" y1="-15.083" x2="21.05" y2="57.992" gradientUnits="userSpaceOnUse"><stop stop-color="#C6FFB2"/><stop offset="1" stop-color="#52D8C5"/></linearGradient></defs></symbol><symbol viewBox="0 0 49 49" id="instagram" xmlns="http://www.w3.org/2000/svg"><path d="M24.038 12.331c-6.802 0-12.309 5.513-12.309 12.309 0 6.802 5.513 12.309 12.309 12.309 6.802 0 12.309-5.513 12.309-12.31 0-6.801-5.513-12.308-12.31-12.308zm0 20.298a7.987 7.987 0 01-7.99-7.99 7.988 7.988 0 017.99-7.988 7.988 7.988 0 017.99 7.989 7.985 7.985 0 01-7.99 7.99z"/><path d="M33.92.815c-4.413-.206-15.345-.196-19.762 0-3.882.182-7.306 1.12-10.066 3.88C-.522 9.307.068 15.524.068 24.64c0 9.33-.52 15.403 4.024 19.946 4.63 4.63 10.937 4.024 19.946 4.024 9.243 0 12.433.006 15.7-1.26 4.444-1.724 7.798-5.696 8.126-12.83.208-4.415.196-15.345 0-19.762C47.468 6.338 42.949 1.23 33.92.815zm6.986 40.72c-3.024 3.024-7.22 2.754-16.926 2.754-9.994 0-14.002.148-16.926-2.784-3.368-3.352-2.759-8.735-2.759-16.896 0-11.044-1.133-18.997 9.95-19.565 2.547-.09 3.297-.12 9.707-.12l.09.06c10.652 0 19.009-1.115 19.51 9.966.114 2.529.14 3.289.14 9.689-.002 9.878.186 13.91-2.786 16.896z"/><path d="M36.834 14.722a2.876 2.876 0 100-5.752 2.876 2.876 0 000 5.752z"/><defs><linearGradient id="da" x1="24.038" y1="12.331" x2="24.038" y2="36.949" gradientUnits="userSpaceOnUse"><stop stop-color="#52D8C5"/><stop offset="1" stop-color="#C6FFB2"/></linearGradient><linearGradient id="db" x1="36.189" y1="32.454" x2="-8.36" y2="-31.634" gradientUnits="userSpaceOnUse"><stop stop-color="#52D8C5"/><stop offset="1" stop-color="#C6FFB2"/></linearGradient><linearGradient id="dc" x1="36.834" y1="8.97" x2="36.834" y2="14.722" gradientUnits="userSpaceOnUse"><stop stop-color="#52D8C5"/><stop offset="1" stop-color="#C6FFB2"/></linearGradient></defs></symbol><symbol viewBox="0 0 24 24" id="phone" xmlns="http://www.w3.org/2000/svg"><path d="M16.974.193c-.747.253-1.229.841-1.635 1.498a34.904 34.904 0 00-1.332 2.32c-.303.585-.464 1.226-.333 1.91.082.43.274.8.577 1.09.416.397.833.804 1.292 1.142.897.66 1.026 1.463.689 2.5-.311.954-.856 1.768-1.44 2.55-.764 1.022-1.579 1.997-2.54 2.821-.53.456-1.087.867-1.772 1.035-.597.147-1.107-.017-1.55-.46-.437-.44-.871-.886-1.332-1.298-.754-.671-1.583-.692-2.438-.232-.28.15-.562.316-.808.521-.88.737-1.788 1.449-2.467 2.416-.56.8-.516 1.573.18 2.243.653.629 1.273 1.301 2.048 1.78 1.357.835 2.812 1.124 4.362.92 1.657-.219 3.123-.943 4.488-1.92 1.804-1.29 3.315-2.912 4.7-4.673 1.232-1.565 2.319-3.229 3.088-5.106.535-1.299.885-2.65.886-4.073 0-2.34-.803-4.295-2.557-5.775-.258-.218-.485-.48-.754-.679-.278-.203-.59-.357-.886-.532-.156.002-.311.002-.466.002z"/></symbol><symbol viewBox="0 0 59 64" id="play-video" xmlns="http://www.w3.org/2000/svg"><path d="M11.092 1.6C5.293-1.694.592 1.004.592 7.622v48.834c0 6.624 4.701 9.319 10.5 6.028l43.104-24.478c5.8-3.295 5.8-8.634 0-11.928L11.092 1.6z"/></symbol><symbol viewBox="0 0 15 15" id="search" xmlns="http://www.w3.org/2000/svg"><path d="M13.569 14.704c-.15-.111-.316-.207-.448-.337-1.258-1.25-2.511-2.506-3.765-3.761-.039-.04-.063-.092-.095-.14-1.448 1.11-3.031 1.512-4.777 1.136-1.452-.314-2.61-1.107-3.444-2.334a5.584 5.584 0 01.725-7.191C3.922-.018 7.132-.018 9.29 1.775a5.633 5.633 0 01.786 7.868c.035.037.07.077.108.115 1.255 1.254 2.51 2.507 3.76 3.766.134.135.232.304.346.457v.25a.708.708 0 01-.472.473h-.25zM10.14 6.098c-.015-2.458-2.01-4.448-4.452-4.44-2.456.009-4.45 2.01-4.44 4.451a4.44 4.44 0 004.45 4.44c2.492-.008 4.427-2.007 4.443-4.45z"/></symbol><symbol viewBox="0 0 19 12" id="select-arrow" xmlns="http://www.w3.org/2000/svg"><path d="M9.739 11.02c-.324 0-.647-.123-.894-.369L1.086 2.93a1.253 1.253 0 010-1.779 1.268 1.268 0 011.787 0L9.74 7.984l6.866-6.832a1.268 1.268 0 011.787 0 1.253 1.253 0 010 1.778l-7.76 7.722c-.246.245-.57.368-.893.368z"/></symbol><symbol viewBox="0 0 17 29" id="slider-next" xmlns="http://www.w3.org/2000/svg"><path d="M16.533 14.182c0 .509-.195 1.017-.583 1.404L3.725 27.782a1.995 1.995 0 01-2.816 0 1.983 1.983 0 010-2.81l10.817-10.79L.91 3.392a1.983 1.983 0 010-2.809 1.994 1.994 0 012.816 0L15.95 12.778c.389.388.583.896.583 1.404z"/></symbol><symbol viewBox="0 0 18 29" id="slider-prev" xmlns="http://www.w3.org/2000/svg"><path d="M.897 14.183c0-.508.195-1.017.583-1.404L13.705.584a1.994 1.994 0 012.816 0 1.983 1.983 0 010 2.809L5.704 14.183l10.817 10.79a1.983 1.983 0 010 2.809 1.994 1.994 0 01-2.816 0L1.48 15.587a1.978 1.978 0 01-.583-1.404z"/></symbol><symbol viewBox="0 0 49 41" id="telegram" xmlns="http://www.w3.org/2000/svg"><path d="M18.871 27.012l-.793 11.16c1.135 0 1.627-.487 2.216-1.072l5.323-5.087 11.03 8.077c2.023 1.127 3.448.533 3.994-1.861l7.24-33.924.001-.002c.642-2.99-1.081-4.16-3.052-3.426L2.275 17.169c-2.904 1.128-2.86 2.747-.494 3.48l10.88 3.384L37.932 8.22c1.19-.787 2.27-.351 1.381.436L18.871 27.011z"/><defs><linearGradient id="ka" x1="35.344" y1="37.534" x2="5.645" y2="-17.566" gradientUnits="userSpaceOnUse"><stop stop-color="#52D8C5"/><stop offset="1" stop-color="#C6FFB2"/></linearGradient></defs></symbol><symbol viewBox="0 0 45 49" id="viber" xmlns="http://www.w3.org/2000/svg"><path d="M43.565 28.46c1.43-12.047-.688-19.652-4.51-23.092l.002-.002c-6.168-5.875-27-6.744-34.38.264C1.363 9.058.196 14.089.067 20.317c-.127 6.23-.279 17.901 10.597 21.068h.01l-.01 4.835s-.074 1.959 1.177 2.352c1.431.464 2.079-.445 6.53-5.762 7.444.645 13.16-.834 13.81-1.05 1.503-.503 10.008-1.629 11.384-13.3zm-24.46 10.948s-4.711 5.874-6.177 7.4c-.48.495-1.005.45-.997-.534 0-.646.036-8.028.036-8.028-9.22-2.642-8.677-12.58-8.577-17.78.1-5.2 1.051-9.46 3.858-12.328 6.474-6.07 24.737-4.713 29.39-.34 5.69 5.043 3.664 19.291 3.676 19.777-1.169 9.742-8.06 10.36-9.328 10.781-.542.18-5.569 1.474-11.881 1.052z"/><path d="M21.711 9.28c-.77 0-.77 1.199 0 1.209 5.97.046 10.888 4.207 10.942 11.84 0 .806 1.179.796 1.169-.01h-.002c-.064-8.224-5.433-12.994-12.109-13.04z"/><path d="M29.565 21.064c-.018.795 1.159.833 1.169.028.098-4.536-2.699-8.271-7.953-8.665-.77-.056-.85 1.153-.082 1.209 4.557.346 6.958 3.456 6.866 7.428zM28.305 26.225c-.987-.572-1.993-.216-2.409.345l-.87 1.126c-.44.571-1.266.495-1.266.495-6.025-1.593-7.636-7.897-7.636-7.897s-.074-.853.478-1.311l1.087-.9c.544-.431.888-1.47.334-2.492-1.48-2.673-2.473-3.594-2.978-4.302-.532-.665-1.332-.815-2.163-.365h-.018c-1.729 1.011-3.622 2.904-3.016 4.853 1.033 2.055 2.932 8.605 8.984 13.554 2.845 2.34 7.346 4.74 9.257 5.293l.018.028c1.883.627 3.714-1.34 4.691-3.12v-.014c.434-.862.29-1.678-.343-2.211-1.124-1.095-2.819-2.305-4.15-3.082z"/><path d="M23.604 16.888c1.92.112 2.852 1.116 2.952 3.176.036.806 1.206.75 1.17-.055-.128-2.69-1.531-4.19-4.058-4.33-.77-.046-.842 1.163-.064 1.21z"/><defs><linearGradient id="la" x1="39.77" y1="22.293" x2="-9.468" y2="-28.508" gradientUnits="userSpaceOnUse"><stop stop-color="#52D8C5"/><stop offset="1" stop-color="#C6FFB2"/></linearGradient><linearGradient id="lb" x1="27.478" y1="9.279" x2="27.478" y2="22.929" gradientUnits="userSpaceOnUse"><stop stop-color="#52D8C5"/><stop offset="1" stop-color="#C6FFB2"/></linearGradient><linearGradient id="lc" x1="26.449" y1="12.425" x2="26.449" y2="21.678" gradientUnits="userSpaceOnUse"><stop stop-color="#52D8C5"/><stop offset="1" stop-color="#C6FFB2"/></linearGradient><linearGradient id="ld" x1="28.827" y1="22.718" x2="2.254" y2="-7.405" gradientUnits="userSpaceOnUse"><stop stop-color="#52D8C5"/><stop offset="1" stop-color="#C6FFB2"/></linearGradient><linearGradient id="le" x1="25.39" y1="15.678" x2="25.39" y2="20.641" gradientUnits="userSpaceOnUse"><stop stop-color="#52D8C5"/><stop offset="1" stop-color="#C6FFB2"/></linearGradient></defs></symbol><symbol viewBox="0 0 8 9" id="video-button" xmlns="http://www.w3.org/2000/svg"><path d="M1.513.745C.775.326.178.669.178 1.511v6.208c0 .843.597 1.185 1.335.767l5.48-3.112c.737-.42.737-1.098 0-1.517L1.513.745z"/></symbol><symbol viewBox="0 0 49 35" id="youtube" xmlns="http://www.w3.org/2000/svg"><path d="M46.95 5.544l.06.391c-.58-2.056-2.145-3.643-4.134-4.221l-.042-.01C39.094.689 24.044.689 24.044.689S9.035.669 5.257 1.704a6.084 6.084 0 00-4.164 4.19l-.01.041c-1.397 7.298-1.407 16.067.062 23.88l-.062-.395c.58 2.056 2.145 3.644 4.134 4.221l.042.01c3.735 1.018 18.789 1.018 18.789 1.018s15.009 0 18.789-1.018A6.083 6.083 0 0047 29.461l.01-.041c.636-3.394 1-7.3 1-11.29 0-.146 0-.293-.002-.441a64.474 64.474 0 00-1.06-12.145zM19.242 24.976V10.4l12.525 7.3-12.525 7.277z"/><defs><linearGradient id="na" x1="36.018" y1="30.798" x2="-15.565" y2="-23.13" gradientUnits="userSpaceOnUse"><stop stop-color="#52D8C5"/><stop offset="1" stop-color="#C6FFB2"/></linearGradient></defs></symbol></svg>