<svg width="159" height="31" viewBox="0 0 159 31" fill="none" xmlns="http://www.w3.org/2000/svg">
<path d="M30.7933 6.40761C27.9652 6.41022 25.2407 7.48346 23.1577 9.4155C21.0748 11.3475 19.7846 13.998 19.542 16.8437C19.5148 16.524 19.499 16.2021 19.499 15.8756C19.6227 12.9345 20.8665 10.1554 22.9709 8.11845C25.0752 6.08153 27.8774 4.94434 30.7922 4.94434C33.707 4.94434 36.5092 6.08153 38.6135 8.11845C40.7179 10.1554 41.9617 12.9345 42.0854 15.8756C42.0854 16.2021 42.0718 16.524 42.0447 16.8437C41.802 13.998 40.5119 11.3475 38.4289 9.4155C36.3459 7.48346 33.6215 6.41022 30.7933 6.40761Z" fill="url(#paint0_linear)"/>
<path d="M37.9533 18.0353C37.953 15.6968 37.1 13.4403 35.5572 11.6965C34.0144 9.95263 31.8898 8.84359 29.5889 8.58101C29.9387 8.54157 30.2904 8.52176 30.6423 8.52165C31.8918 8.5021 33.1327 8.73377 34.2927 9.20316C35.4527 9.67255 36.5087 10.3703 37.3992 11.2558C38.2896 12.1412 38.9968 13.1967 39.4795 14.3609C39.9622 15.525 40.2108 16.7744 40.2108 18.0365C40.2108 19.2985 39.9622 20.548 39.4795 21.7121C38.9968 22.8762 38.2896 23.9317 37.3992 24.8172C36.5087 25.7027 35.4527 26.4004 34.2927 26.8698C33.1327 27.3392 31.8918 27.5709 30.6423 27.5513C30.2903 27.5516 29.9385 27.531 29.5889 27.4897C31.89 27.2276 34.0149 26.1187 35.5578 24.3747C37.1007 22.6308 37.9535 20.374 37.9533 18.0353Z" fill="url(#paint1_linear)"/>
<path d="M11.5939 8.76624C11.5939 8.76624 8.44707 3.49227 4.57003 1.11784C3.74488 0.734277 4.4909 -3.83193 11.5939 8.76624Z" fill="url(#paint2_linear)"/>
<path d="M7.96058 5.5932C7.96058 5.5932 4.01572 2.63887 0.416738 2.06581C-0.315718 2.03384 -1.1386 -1.59172 7.96058 5.5932Z" fill="url(#paint3_linear)"/>
<path d="M34.184 28.5307C32.3933 29.2999 30.4772 29.728 28.5323 29.7933H27.9265C24.0742 29.7838 20.3562 28.3633 17.4623 25.7954C14.5684 23.2276 12.6951 19.6867 12.19 15.8298C12.1696 15.6015 12.147 15.3846 12.1176 15.1631C11.7366 12.2394 10.5631 9.47875 8.72661 7.18599C7.37909 6.2156 5.88933 5.46448 4.31152 4.95996C6.04899 6.24339 7.5106 7.86944 8.60792 9.73975C9.70525 11.6101 10.4155 13.6857 10.6956 15.8412C10.725 16.0695 10.7476 16.2819 10.768 16.5056C11.2709 20.363 13.1424 23.9051 16.0351 26.4747C18.9278 29.0442 22.6453 30.4667 26.4977 30.4782H27.1013C29.0519 30.4106 30.9734 29.9794 32.7688 29.2065C33.3611 28.9622 33.8991 28.7042 34.3807 28.4531L34.184 28.5307Z" fill="url(#paint4_linear)"/>
<path d="M16.0065 17.0467C16.0065 13.0443 17.5808 9.20574 20.3832 6.37557C23.1855 3.5454 26.9864 1.95543 30.9495 1.95543C31.3406 1.95543 31.7294 1.96913 32.1115 1.99881C29.2761 1.32566 26.3034 1.5634 23.6083 2.67884C20.9132 3.79428 18.6302 5.73175 17.078 8.2208C15.5258 10.7098 14.7819 13.6262 14.9501 16.5629C15.1183 19.4995 16.1902 22.3098 18.0162 24.6015C16.6974 22.3067 16.0039 19.7001 16.0065 17.0467Z" fill="url(#paint5_linear)"/>
<path d="M4.2832 4.96973C4.2832 4.96973 13.1586 6.92407 15.304 17.9834C17.4493 29.0428 32.1233 30.5291 37.5557 26.3784C35.2476 27.7483 28.8205 33.7437 18.6769 26.7962C17.7609 26.1207 16.9128 25.356 16.1449 24.5131C14.7049 22.8852 13.4773 20.8738 12.98 19.1866C12.7016 18.3801 12.4802 17.5545 12.3176 16.7163C11.558 12.4423 10.7668 8.16607 4.2832 4.96973Z" fill="url(#paint6_linear)"/>
<path d="M36.3497 27.1312C36.673 26.9326 36.9601 26.7477 37.2088 26.5901C35.2678 27.7418 33.0583 28.3508 30.8071 28.3547C28.556 28.3586 26.3444 27.7571 24.3996 26.6121C22.4547 25.4671 20.8468 23.8199 19.7409 21.8396C18.6351 19.8594 18.0711 17.6175 18.1071 15.3443C18.143 13.0711 18.7776 10.8485 19.9455 8.90493C21.1134 6.96134 22.7726 5.36681 24.7527 4.28513C26.7327 3.20345 28.9622 2.67364 31.2121 2.75011C33.4619 2.82659 35.6511 3.50659 37.5547 4.72027C35.9502 3.39977 34.0706 2.46313 32.0567 1.98055C31.6905 1.95315 31.322 1.93945 30.949 1.93945C28.5666 1.94053 26.2191 2.51658 24.1018 3.61962C21.9846 4.72266 20.1591 6.32074 18.7773 8.28069C17.3955 10.2407 16.4976 12.5057 16.1583 14.8872C15.819 17.2686 16.0481 19.6975 16.8266 21.9714C20.9365 28.7751 31.1163 29.8253 36.3497 27.1312Z" fill="url(#paint7_linear)"/>
<path d="M30.7936 5.36458C33.7112 5.36752 36.5146 6.5097 38.6175 8.5522C40.7204 10.5947 41.9599 13.3793 42.0766 16.3235C42.0766 16.1728 42.0766 16.0198 42.0766 15.8669C41.9529 12.9258 40.7091 10.1466 38.6047 8.10966C36.5004 6.07274 33.6982 4.93555 30.7834 4.93555C27.8686 4.93555 25.0664 6.07274 22.9621 8.10966C20.8577 10.1466 19.6139 12.9258 19.4902 15.8669C19.4902 16.0175 19.4902 16.1705 19.4902 16.3235C19.6071 13.3757 20.8493 10.5881 22.9566 8.54508C25.0639 6.50204 27.8725 5.36222 30.7936 5.36458Z" fill="url(#paint8_linear)"/>
<path d="M30.64 8.52232C30.475 8.52232 30.3122 8.52232 30.1494 8.52232C32.5574 8.65295 34.8242 9.71104 36.4831 11.4787C38.1419 13.2464 39.0665 15.5892 39.0665 18.0246C39.0665 20.46 38.1419 22.8028 36.4831 24.5705C34.8242 26.3382 32.5574 27.3963 30.1494 27.5269C30.3122 27.5269 30.475 27.5406 30.64 27.5406C31.8895 27.5601 33.1304 27.3285 34.2904 26.8591C35.4504 26.3897 36.5064 25.6919 37.3968 24.8065C38.2873 23.921 38.9944 22.8655 39.4771 21.7014C39.9598 20.5373 40.2084 19.2878 40.2084 18.0257C40.2084 16.7637 39.9598 15.5142 39.4771 14.3501C38.9944 13.186 38.2873 12.1305 37.3968 11.245C36.5064 10.3595 35.4504 9.66181 34.2904 9.19242C33.1304 8.72302 31.8895 8.49136 30.64 8.51091V8.52232Z" fill="url(#paint9_linear)"/>
<path d="M56.7909 18.4028C56.7998 19.235 56.6714 20.0629 56.4111 20.8526C56.1783 21.5598 55.8086 22.2132 55.3237 22.775C54.8515 23.3135 54.2702 23.7433 53.6192 24.0352C52.917 24.3464 52.1569 24.5021 51.3902 24.4919C50.605 24.5035 49.8262 24.3479 49.1046 24.0352C48.4505 23.7477 47.8675 23.3173 47.3978 22.775C46.9179 22.2123 46.5536 21.5588 46.3263 20.8526C46.0723 20.0616 45.9471 19.2343 45.9555 18.4028C45.9465 17.5657 46.0764 16.7331 46.3398 15.9394C46.5743 15.2308 46.9437 14.5754 47.4272 14.0101C47.8978 13.4713 48.4786 13.042 49.1295 12.7521C49.8373 12.441 50.6025 12.2853 51.3743 12.2955C52.1551 12.284 52.9294 12.4396 53.6463 12.7521C54.2982 13.0414 54.8799 13.4707 55.3509 14.0101C55.8303 14.5753 56.1938 15.2311 56.4201 15.9394C56.6746 16.7349 56.7998 17.5668 56.7909 18.4028ZM55.3825 18.4028C55.3942 17.6934 55.2903 16.9869 55.0751 16.3115C54.896 15.7554 54.6068 15.242 54.225 14.8024C53.8734 14.4061 53.4385 14.0941 52.9523 13.8891C51.9382 13.4697 50.8015 13.4697 49.7873 13.8891C49.3001 14.0935 48.8644 14.4055 48.5123 14.8024C48.1305 15.2415 47.842 15.7552 47.6646 16.3115C47.4474 16.9865 47.3427 17.6932 47.3549 18.4028C47.3422 19.1104 47.4477 19.8151 47.6668 20.4873C47.8497 21.0419 48.1402 21.5542 48.5214 21.9941C48.8722 22.3914 49.3072 22.7036 49.7941 22.9074C50.2967 23.113 50.8344 23.217 51.3766 23.2133C51.9145 23.218 52.448 23.114 52.9455 22.9074C53.4297 22.7023 53.8623 22.3902 54.2115 21.9941C54.5928 21.5551 54.8819 21.0424 55.0615 20.4873C55.2829 19.8153 55.3929 19.111 55.387 18.4028H55.3825Z" fill="#5A3A55"/>
<path d="M60.8217 19.4036V24.2689H59.4043V12.52H62.4178C62.851 12.5161 63.2841 12.5352 63.7154 12.5771C64.0452 12.6097 64.3718 12.6693 64.692 12.7552C65.4166 12.9248 66.068 13.3249 66.5503 13.8967C66.9919 14.4675 67.2201 15.1774 67.1946 15.9013C67.201 16.3367 67.1242 16.7692 66.9685 17.1753C66.8244 17.5404 66.6082 17.872 66.3332 18.1502C66.0505 18.4361 65.7188 18.6682 65.3544 18.8351C64.9516 19.0188 64.5268 19.1485 64.0907 19.2209V19.2575L67.5337 24.2803H66.1162L62.5331 19.4036H60.8217ZM60.8217 13.81V18.1136H62.2166C62.6506 18.1136 63.0214 18.0977 63.3288 18.068C63.6087 18.0461 63.8854 17.9932 64.154 17.9104C64.595 17.7887 64.9891 17.5348 65.2843 17.1821C65.5711 16.8066 65.7176 16.3409 65.698 15.8671C65.714 15.429 65.579 14.9989 65.3159 14.6502C65.0446 14.3293 64.6838 14.0986 64.2806 13.9881C64.0369 13.9169 63.7871 13.8695 63.5345 13.8465C63.2429 13.8168 62.8744 13.8031 62.4291 13.8031L60.8217 13.81Z" fill="#5A3A55"/>
<path d="M71.3588 22.9761H77.3247V24.2684H69.9414V12.5195H77.0015V13.8118H71.3498V17.6063H76.3662V18.8962H71.3588V22.9761Z" fill="#5A3A55"/>
<path d="M85.7279 19.0629C86.4408 20.0994 87.1446 21.1649 87.8394 22.2593H87.8936C87.8168 21.1177 87.7791 19.9526 87.7806 18.7638V12.5195H89.2048V24.2684H87.7874L83.2231 17.7182C82.4334 16.5766 81.7296 15.5112 81.1116 14.5218H81.0574C81.1342 15.5873 81.1719 16.8369 81.1704 18.2707V24.2684H79.7598V12.5195H81.1682L85.7279 19.0629Z" fill="#5A3A55"/>
<path d="M101.582 18.3414C101.585 18.9941 101.499 19.644 101.326 20.273C101.168 20.856 100.91 21.4069 100.565 21.9008C100.22 22.3912 99.7899 22.815 99.2964 23.1519C98.7513 23.5202 98.1504 23.7963 97.5173 23.9693C97.1054 24.0843 96.6838 24.1607 96.2581 24.1976C95.8059 24.2402 95.3161 24.2623 94.7886 24.2638H92.1572V12.5195H94.818C95.3455 12.5195 95.8353 12.5408 96.2875 12.5835C96.7137 12.6229 97.1357 12.6993 97.5489 12.8118C98.1799 12.9842 98.7797 13.257 99.3258 13.62C99.8163 13.9482 100.244 14.3636 100.587 14.846C100.928 15.3302 101.181 15.8712 101.336 16.4442C101.504 17.0621 101.587 17.7006 101.582 18.3414ZM100.174 18.3414C100.174 17.2105 99.9271 16.2973 99.4343 15.6017C98.9125 14.8777 98.1649 14.3518 97.3115 14.1086C96.9265 13.9907 96.5302 13.9142 96.1292 13.8803C95.6952 13.8392 95.2054 13.8186 94.6598 13.8186H93.5747V22.9853H94.6598C95.2054 22.9853 95.6952 22.9655 96.1292 22.9259C96.5302 22.8921 96.9265 22.8155 97.3115 22.6976C98.174 22.4493 98.9244 21.9062 99.4343 21.1611C99.9271 20.4229 100.174 19.483 100.174 18.3414Z" fill="#5A3A55"/>
<path d="M102.932 24.2684L107.679 12.5195H108.904L113.652 24.2684H112.114L110.724 20.7296H105.848L104.46 24.2684H102.932ZM108.269 14.346C107.751 15.8072 107.255 17.136 106.782 18.3323L106.348 19.4373H110.204L109.763 18.3323C109.286 17.1147 108.8 15.7859 108.305 14.346H108.269Z" fill="#5A3A55"/>
<path d="M115.46 24.269V22.5566H117.113V24.269H115.46Z" fill="#5A3A55"/>
<path d="M120.121 24.2684V12.5195H121.539V24.2684H120.121Z" fill="#5A3A55"/>
<path d="M125.911 24.2684H124.493V12.5195H131.433V13.8118H125.911V17.6063H130.807V18.8962H125.911V24.2684Z" fill="#5A3A55"/>
<path d="M132.297 24.269V22.5566H133.949V24.269H132.297Z" fill="#5A3A55"/>
<path d="M141.458 23.2136C141.84 23.2205 142.221 23.1705 142.588 23.0652C142.896 22.9754 143.186 22.8325 143.445 22.6428C143.686 22.4653 143.892 22.2438 144.053 21.9898C144.218 21.7274 144.345 21.4421 144.428 21.1428C144.488 20.9316 144.529 20.7153 144.55 20.4967C144.573 20.2684 144.584 20.0287 144.584 19.8118V12.5195H146.002V19.773C146.002 20.0469 145.986 20.3346 145.959 20.6314C145.932 20.913 145.885 21.1922 145.819 21.467C145.712 21.8901 145.545 22.2954 145.323 22.6702C145.099 23.0414 144.807 23.3661 144.462 23.6268C144.078 23.9113 143.647 24.1253 143.189 24.2593C142.622 24.4214 142.034 24.4983 141.444 24.4876C140.878 24.4965 140.314 24.4258 139.767 24.2775C139.324 24.1547 138.905 23.957 138.528 23.693C138.192 23.4535 137.905 23.1522 137.68 22.8049C137.458 22.458 137.286 22.0815 137.167 21.6862C137.078 21.3787 137.015 21.064 136.979 20.7456C136.943 20.4226 136.924 20.098 136.923 19.773V12.5195H138.34V19.8072C138.342 20.0791 138.361 20.3506 138.397 20.62C138.43 20.8782 138.49 21.1322 138.575 21.378C138.762 21.9241 139.117 22.3954 139.588 22.7227C140.148 23.0733 140.8 23.2445 141.458 23.2136Z" fill="#5A3A55"/>
<path d="M147.735 24.2684L152.483 12.5195H153.71L158.458 24.2684H156.918L155.528 20.7296H150.647L149.252 24.2684H147.735ZM153.075 14.346C152.555 15.8072 152.059 17.136 151.588 18.3323L151.153 19.4373H155.008L154.556 18.3323C154.08 17.1147 153.593 15.7859 153.098 14.346H153.075Z" fill="#5A3A55"/>
<defs>
<linearGradient id="paint0_linear" x1="26.2428" y1="19.1418" x2="45.5749" y2="6.58263" gradientUnits="userSpaceOnUse">
<stop stop-color="#C6FFB2"/>
<stop offset="0.12" stop-color="#A9F5B7"/>
<stop offset="0.27" stop-color="#8AEBBC"/>
<stop offset="0.43" stop-color="#71E2C0"/>
<stop offset="0.6" stop-color="#60DDC3"/>
<stop offset="0.78" stop-color="#55D9C4"/>
<stop offset="1" stop-color="#52D8C5"/>
</linearGradient>
<linearGradient id="paint1_linear" x1="37.1348" y1="34.6408" x2="34.2526" y2="8.52548" gradientUnits="userSpaceOnUse">
<stop stop-color="#C6FFB2"/>
<stop offset="1" stop-color="#52D8C5"/>
</linearGradient>
<linearGradient id="paint2_linear" x1="7.94784" y1="0" x2="11.6444" y2="9.25043" gradientUnits="userSpaceOnUse">
<stop stop-color="#C6FFB2"/>
<stop offset="1" stop-color="#52D8C5"/>
</linearGradient>
<linearGradient id="paint3_linear" x1="-3.22806" y1="-0.692614" x2="8.03277" y2="8.53722" gradientUnits="userSpaceOnUse">
<stop stop-color="#C6FFB2"/>
<stop offset="1" stop-color="#C6FFB2" stop-opacity="0"/>
<stop offset="1" stop-color="#52D8C5"/>
</linearGradient>
<linearGradient id="paint4_linear" x1="22.9477" y1="21.4481" x2="2.64681" y2="10.4213" gradientUnits="userSpaceOnUse">
<stop stop-color="#9F4B81"/>
<stop offset="1" stop-color="#5A3A55"/>
</linearGradient>
<linearGradient id="paint5_linear" x1="22.6845" y1="9.32072" x2="12.367" y2="23.212" gradientUnits="userSpaceOnUse">
<stop offset="0.05" stop-color="#A04B82"/>
<stop offset="0.06" stop-color="#9F4B81"/>
<stop offset="0.6" stop-color="#6D3F61"/>
<stop offset="0.87" stop-color="#5A3A55"/>
</linearGradient>
<linearGradient id="paint6_linear" x1="51.7789" y1="38.3317" x2="1.15276" y2="0.708957" gradientUnits="userSpaceOnUse">
<stop stop-color="#5A3A55"/>
<stop offset="1" stop-color="#A04B82"/>
</linearGradient>
<linearGradient id="paint7_linear" x1="16.0059" y1="28.5029" x2="37.0639" y2="2.10268" gradientUnits="userSpaceOnUse">
<stop stop-color="#9F4B81"/>
<stop offset="1" stop-color="#5A3A55"/>
</linearGradient>
<linearGradient id="paint8_linear" x1="42.0766" y1="4.38118" x2="19.4255" y2="14.944" gradientUnits="userSpaceOnUse">
<stop stop-color="#C6FFB2"/>
<stop offset="1" stop-color="#52D8C5"/>
</linearGradient>
<linearGradient id="paint9_linear" x1="41.3448" y1="8.50977" x2="32.8979" y2="31.7386" gradientUnits="userSpaceOnUse">
<stop stop-color="#C6FFB2"/>
<stop offset="1" stop-color="#52D8C5"/>
</linearGradient>
</defs>
</svg>
