<svg width="232" height="256" viewBox="0 0 232 256" fill="none" xmlns="http://www.w3.org/2000/svg">
<path d="M32.5502 254.036C29.4581 254.036 26.9486 251.526 26.9486 248.434V156.33C26.9486 153.238 29.4581 150.728 32.5502 150.728C35.6423 150.728 38.1518 153.238 38.1518 156.33V248.434C38.1518 251.526 35.6451 254.036 32.5502 254.036Z" fill="black"/>
<path fill-rule="evenodd" clip-rule="evenodd" d="M32.5502 154.728C31.6673 154.728 30.9486 155.447 30.9486 156.33V248.434C30.9486 249.317 31.6673 250.036 32.5502 250.036C33.4347 250.036 34.1518 249.319 34.1518 248.434V156.33C34.1518 155.447 33.4332 154.728 32.5502 154.728ZM22.9486 156.33C22.9486 151.029 27.249 146.728 32.5502 146.728C37.8514 146.728 42.1518 151.029 42.1518 156.33V248.434C42.1518 253.734 37.8555 258.036 32.5502 258.036C27.249 258.036 22.9486 253.736 22.9486 248.434V156.33Z" fill="black"/>
<path d="M199.45 168.211C196.358 168.211 193.848 165.702 193.848 162.609V7.56559C193.848 4.47351 196.358 1.96399 199.45 1.96399C202.542 1.96399 205.051 4.47351 205.051 7.56559V162.609C205.051 165.704 202.542 168.211 199.45 168.211Z" fill="black"/>
<path fill-rule="evenodd" clip-rule="evenodd" d="M199.45 5.96399C198.567 5.96399 197.848 6.68265 197.848 7.56559V162.609C197.848 163.492 198.567 164.211 199.45 164.211C200.334 164.211 201.051 163.494 201.051 162.609V7.56559C201.051 6.68265 200.333 5.96399 199.45 5.96399ZM189.848 7.56559C189.848 2.26437 194.149 -2.03601 199.45 -2.03601C204.751 -2.03601 209.051 2.26437 209.051 7.56559V162.609C209.051 167.915 204.75 172.211 199.45 172.211C194.149 172.211 189.848 167.911 189.848 162.609V7.56559Z" fill="black"/>
<path d="M116 254.036C112.908 254.036 110.398 251.526 110.398 248.434V80.1679C110.398 77.0759 112.908 74.5663 116 74.5663C119.092 74.5663 121.602 77.0759 121.602 80.1679V248.434C121.602 251.526 119.092 254.036 116 254.036Z" fill="black"/>
<path fill-rule="evenodd" clip-rule="evenodd" d="M116 78.5663C115.117 78.5663 114.398 79.285 114.398 80.1679V248.434C114.398 249.317 115.117 250.036 116 250.036C116.883 250.036 117.602 249.317 117.602 248.434V80.1679C117.602 79.285 116.883 78.5663 116 78.5663ZM106.398 80.1679C106.398 74.8667 110.699 70.5663 116 70.5663C121.301 70.5663 125.602 74.8667 125.602 80.1679V248.434C125.602 253.736 121.301 258.036 116 258.036C110.699 258.036 106.398 253.736 106.398 248.434V80.1679Z" fill="black"/>
<path d="M116 85.7695C100.696 85.7695 88.2441 73.32 88.2441 58.0136C88.2441 42.7072 100.694 30.2577 116 30.2577C131.306 30.2577 143.756 42.7072 143.756 58.0136C143.756 73.32 131.306 85.7695 116 85.7695ZM116 41.4637C106.872 41.4637 99.4473 48.8886 99.4473 58.0164C99.4473 67.1442 106.872 74.5691 116 74.5691C125.128 74.5691 132.553 67.1442 132.553 58.0164C132.553 48.8886 125.128 41.4637 116 41.4637Z" fill="black"/>
<path fill-rule="evenodd" clip-rule="evenodd" d="M116 34.2577C102.903 34.2577 92.2441 44.9164 92.2441 58.0136C92.2441 71.1106 102.905 81.7695 116 81.7695C129.097 81.7695 139.756 71.1109 139.756 58.0136C139.756 44.9164 129.097 34.2577 116 34.2577ZM84.2441 58.0136C84.2441 40.4981 98.4845 26.2577 116 26.2577C133.516 26.2577 147.756 40.4981 147.756 58.0136C147.756 75.5291 133.516 89.7695 116 89.7695C98.4876 89.7695 84.2441 75.5294 84.2441 58.0136ZM95.4473 58.0164C95.4473 46.6795 104.663 37.4637 116 37.4637C127.337 37.4637 136.553 46.6795 136.553 58.0164C136.553 69.3534 127.337 78.5691 116 78.5691C104.663 78.5691 95.4473 69.3534 95.4473 58.0164ZM116 45.4637C109.081 45.4637 103.447 51.0978 103.447 58.0164C103.447 64.9351 109.081 70.5691 116 70.5691C122.919 70.5691 128.553 64.9351 128.553 58.0164C128.553 51.0978 122.919 45.4637 116 45.4637Z" fill="black"/>
<path d="M32.5502 161.932C17.2466 161.932 4.79425 149.482 4.79425 134.176C4.79425 118.872 17.2438 106.42 32.5502 106.42C47.8566 106.42 60.3061 118.869 60.3061 134.176C60.3061 149.482 47.8538 161.932 32.5502 161.932ZM32.5502 117.623C23.4224 117.623 15.9975 125.048 15.9975 134.176C15.9975 143.304 23.4224 150.728 32.5502 150.728C41.678 150.728 49.1029 143.304 49.1029 134.176C49.1029 125.048 41.678 117.623 32.5502 117.623Z" fill="black"/>
<path fill-rule="evenodd" clip-rule="evenodd" d="M32.5502 110.42C19.4532 110.42 8.79425 121.081 8.79425 134.176C8.79425 147.273 19.4555 157.932 32.5502 157.932C45.6449 157.932 56.3061 147.273 56.3061 134.176C56.3061 121.079 45.6474 110.42 32.5502 110.42ZM0.79425 134.176C0.79425 116.663 15.0344 102.42 32.5502 102.42C50.0657 102.42 64.3061 116.66 64.3061 134.176C64.3061 151.692 50.0626 165.932 32.5502 165.932C15.0377 165.932 0.79425 151.692 0.79425 134.176ZM11.9975 134.176C11.9975 122.839 21.2132 113.623 32.5502 113.623C43.8871 113.623 53.1029 122.839 53.1029 134.176C53.1029 145.513 43.8871 154.728 32.5502 154.728C21.2132 154.728 11.9975 145.513 11.9975 134.176ZM32.5502 121.623C25.6315 121.623 19.9975 127.257 19.9975 134.176C19.9975 141.094 25.6315 146.728 32.5502 146.728C39.4688 146.728 45.1029 141.094 45.1029 134.176C45.1029 127.257 39.4688 121.623 32.5502 121.623Z" fill="black"/>
<path d="M199.45 212.52C184.146 212.52 171.697 200.07 171.697 184.764C171.697 169.46 184.146 157.011 199.45 157.011C214.756 157.011 227.206 169.46 227.206 184.764C227.206 200.067 214.756 212.52 199.45 212.52ZM199.45 168.211C190.322 168.211 182.9 175.633 182.9 184.761C182.9 193.889 190.322 201.314 199.45 201.314C208.578 201.314 216.003 193.889 216.003 184.761C216.003 175.633 208.578 168.211 199.45 168.211Z" fill="black"/>
<path fill-rule="evenodd" clip-rule="evenodd" d="M199.45 161.011C186.355 161.011 175.697 171.669 175.697 184.764C175.697 197.861 186.356 208.52 199.45 208.52C212.547 208.52 223.206 197.858 223.206 184.764C223.206 171.67 212.547 161.011 199.45 161.011ZM167.697 184.764C167.697 167.251 181.937 153.011 199.45 153.011C216.965 153.011 231.206 167.251 231.206 184.764C231.206 202.276 216.966 216.52 199.45 216.52C181.937 216.52 167.697 202.279 167.697 184.764ZM178.9 184.761C178.9 173.424 188.113 164.211 199.45 164.211C210.786 164.211 220.003 173.423 220.003 184.761C220.003 196.098 210.787 205.314 199.45 205.314C188.112 205.314 178.9 196.097 178.9 184.761ZM199.45 172.211C192.531 172.211 186.9 177.842 186.9 184.761C186.9 191.681 192.532 197.314 199.45 197.314C206.369 197.314 212.003 191.68 212.003 184.761C212.003 177.843 206.369 172.211 199.45 172.211Z" fill="black"/>
<path d="M32.5502 117.623C29.4581 117.623 26.9486 115.113 26.9486 112.021V7.56559C26.9486 4.47351 29.4581 1.96399 32.5502 1.96399C35.6423 1.96399 38.1518 4.47351 38.1518 7.56559V112.021C38.1518 115.116 35.6451 117.623 32.5502 117.623Z" fill="black"/>
<path fill-rule="evenodd" clip-rule="evenodd" d="M32.5502 5.96399C31.6673 5.96399 30.9486 6.68265 30.9486 7.56559V112.021C30.9486 112.904 31.6673 113.623 32.5502 113.623C33.436 113.623 34.1518 112.907 34.1518 112.021V7.56559C34.1518 6.68265 33.4332 5.96399 32.5502 5.96399ZM22.9486 7.56559C22.9486 2.26437 27.249 -2.03601 32.5502 -2.03601C37.8514 -2.03601 42.1518 2.26437 42.1518 7.56559V112.021C42.1518 117.325 37.8542 121.623 32.5502 121.623C27.249 121.623 22.9486 117.323 22.9486 112.021V7.56559Z" fill="black"/>
<path d="M116 41.4637C112.908 41.4637 110.398 38.9542 110.398 35.8621V7.56559C110.398 4.47351 112.908 1.96399 116 1.96399C119.092 1.96399 121.602 4.47351 121.602 7.56559V35.8621C121.602 38.9542 119.092 41.4637 116 41.4637Z" fill="black"/>
<path fill-rule="evenodd" clip-rule="evenodd" d="M116 5.96399C115.117 5.96399 114.398 6.68265 114.398 7.56559V35.8621C114.398 36.745 115.117 37.4637 116 37.4637C116.883 37.4637 117.602 36.745 117.602 35.8621V7.56559C117.602 6.68265 116.883 5.96399 116 5.96399ZM106.398 7.56559C106.398 2.26437 110.699 -2.03601 116 -2.03601C121.301 -2.03601 125.602 2.26437 125.602 7.56559V35.8621C125.602 41.1633 121.301 45.4637 116 45.4637C110.699 45.4637 106.398 41.1633 106.398 35.8621V7.56559Z" fill="black"/>
<path d="M199.45 254.036C196.358 254.036 193.848 251.526 193.848 248.434V206.918C193.848 203.826 196.358 201.317 199.45 201.317C202.542 201.317 205.051 203.826 205.051 206.918V248.434C205.051 251.526 202.542 254.036 199.45 254.036Z" fill="black"/>
<path fill-rule="evenodd" clip-rule="evenodd" d="M199.45 205.317C198.567 205.317 197.848 206.035 197.848 206.918V248.434C197.848 249.317 198.567 250.036 199.45 250.036C200.333 250.036 201.051 249.317 201.051 248.434V206.918C201.051 206.035 200.333 205.317 199.45 205.317ZM189.848 206.918C189.848 201.617 194.149 197.317 199.45 197.317C204.751 197.317 209.051 201.617 209.051 206.918V248.434C209.051 253.736 204.751 258.036 199.45 258.036C194.149 258.036 189.848 253.736 189.848 248.434V206.918Z" fill="black"/>
</svg>
