<svg width="49" height="49" viewBox="0 0 49 49" fill="none" xmlns="http://www.w3.org/2000/svg">
<path d="M24.0378 12.3311C17.2358 12.3311 11.729 17.8438 11.729 24.6399C11.729 31.4419 17.2418 36.9487 24.0378 36.9487C30.8398 36.9487 36.3466 31.4359 36.3466 24.6399C36.3466 17.8378 30.8338 12.3311 24.0378 12.3311ZM24.0378 32.6292C19.6224 32.6292 16.0485 29.0533 16.0485 24.6399C16.0485 20.2264 19.6244 16.6505 24.0378 16.6505C28.4512 16.6505 32.0271 20.2264 32.0271 24.6399C32.0291 29.0533 28.4532 32.6292 24.0378 32.6292Z" fill="url(#paint0_linear)"/>
<path d="M33.9201 0.814748C29.5067 0.608868 18.5751 0.618862 14.1577 0.814748C10.2759 0.996641 6.85193 1.93409 4.09155 4.69448C-0.521758 9.30778 0.0678973 15.5242 0.0678973 24.6408C0.0678973 33.9714 -0.451799 40.0438 4.09155 44.5872C8.72284 49.2165 15.0292 48.6108 24.0379 48.6108C33.2805 48.6108 36.4706 48.6168 39.7387 47.3515C44.1821 45.6266 47.5361 41.6549 47.864 34.521C48.0718 30.1056 48.0598 19.176 47.864 14.7586C47.4682 6.33752 42.9488 1.2305 33.9201 0.814748ZM40.906 41.5349C37.8818 44.5592 33.6862 44.2893 23.9799 44.2893C13.9858 44.2893 9.9781 44.4372 7.05381 41.505C3.68578 38.1529 4.29543 32.7701 4.29543 24.6088C4.29543 13.5653 3.16209 5.61194 14.2456 5.04428C16.7921 4.95433 17.5417 4.92435 23.9519 4.92435L24.0419 4.98431C34.6937 4.98431 43.0508 3.86896 43.5525 14.9505C43.6664 17.479 43.6924 18.2386 43.6924 24.6388C43.6904 34.517 43.8783 38.5487 40.906 41.5349Z" fill="url(#paint1_linear)"/>
<path d="M36.8343 14.7224C38.4229 14.7224 39.7106 13.4346 39.7106 11.846C39.7106 10.2575 38.4229 8.96973 36.8343 8.96973C35.2458 8.96973 33.958 10.2575 33.958 11.846C33.958 13.4346 35.2458 14.7224 36.8343 14.7224Z" fill="url(#paint2_linear)"/>
<defs>
<linearGradient id="paint0_linear" x1="24.0378" y1="12.3311" x2="24.0378" y2="36.9487" gradientUnits="userSpaceOnUse">
<stop stop-color="#52D8C5"/>
<stop offset="1" stop-color="#C6FFB2"/>
</linearGradient>
<linearGradient id="paint1_linear" x1="36.1893" y1="32.4536" x2="-8.35953" y2="-31.6341" gradientUnits="userSpaceOnUse">
<stop stop-color="#52D8C5"/>
<stop offset="1" stop-color="#C6FFB2"/>
</linearGradient>
<linearGradient id="paint2_linear" x1="36.8343" y1="8.96973" x2="36.8343" y2="14.7224" gradientUnits="userSpaceOnUse">
<stop stop-color="#52D8C5"/>
<stop offset="1" stop-color="#C6FFB2"/>
</linearGradient>
</defs>
</svg>
