<svg width="24" height="24" viewBox="0 0 24 24" fill="none" xmlns="http://www.w3.org/2000/svg">
<path d="M16.9741 0.192558C16.2273 0.445884 15.7455 1.03429 15.3388 1.69064C14.8701 2.44716 14.4176 3.21751 14.0066 4.01088C13.7036 4.59583 13.5433 5.23721 13.6741 5.92119C13.7559 6.35069 13.9478 6.72147 14.2508 7.01049C14.6673 7.40775 15.0837 7.81538 15.5427 8.15276C16.4399 8.81372 16.5685 9.6163 16.2317 10.6526C15.921 11.6072 15.3759 12.4213 14.7916 13.2032C14.0284 14.2245 13.213 15.1998 12.2526 16.0243C11.7217 16.4803 11.1646 16.8914 10.48 17.0595C9.88254 17.2057 9.37343 17.0422 8.93083 16.5989C8.49258 16.159 8.05869 15.7134 7.59755 15.3012C6.84425 14.6299 6.01463 14.6091 5.15994 15.0686C4.87977 15.2194 4.5985 15.3852 4.35213 15.5902C3.47127 16.3271 2.56426 17.0388 1.88508 18.006C1.32474 18.8051 1.36943 19.5789 2.06496 20.2491C2.71797 20.8778 3.33827 21.5503 4.11338 22.0281C5.46955 22.8641 6.92492 23.1531 8.47514 22.9493C10.1322 22.7305 11.5985 22.0063 12.9634 21.0298C14.7665 19.739 16.2775 18.1166 17.6631 16.3559C18.8949 14.7911 19.9818 13.1272 20.7515 11.2503C21.2857 9.95138 21.6356 8.60069 21.6367 7.17746C21.6378 4.83764 20.8344 2.88242 19.0803 1.40162C18.8219 1.18399 18.5952 0.922598 18.3259 0.723392C18.0479 0.519579 17.7361 0.366432 17.4396 0.191406C17.2837 0.192558 17.1289 0.192558 16.9741 0.192558Z" fill="#A04B82"/>
</svg>
