<svg width="15" height="15" viewBox="0 0 15 15" fill="none" xmlns="http://www.w3.org/2000/svg">
<path d="M13.5688 14.7036C13.4187 14.5926 13.2527 14.4975 13.1214 14.3673C11.8625 13.1172 10.6095 11.8612 9.35609 10.6056C9.31745 10.5669 9.29307 10.514 9.2607 10.4656C7.81272 11.5757 6.23 11.9779 4.48399 11.6015C3.03218 11.2884 1.87456 10.4949 1.04038 9.26846C-0.540599 6.94487 -0.165634 3.95133 1.76454 2.07693C3.92172 -0.0175398 7.13172 -0.0182363 9.29064 1.77469C11.5456 3.64769 12.095 7.08555 10.0768 9.64313C10.1116 9.68004 10.1471 9.72009 10.1851 9.75769C11.4395 11.0123 12.6956 12.2651 13.9455 13.5243C14.0788 13.6587 14.177 13.8279 14.2912 13.9811C14.2912 14.0647 14.2912 14.1479 14.2912 14.2315C14.2129 14.4679 14.0552 14.6256 13.8188 14.704C13.7355 14.7036 13.6523 14.7036 13.5688 14.7036ZM10.1412 6.09838C10.1248 3.63899 8.12919 1.64968 5.68757 1.65804C3.23237 1.66674 1.23778 3.66719 1.24788 6.10917C1.25798 8.56299 3.23098 10.5544 5.69836 10.5481C8.19046 10.5415 10.1248 8.5421 10.1412 6.09838Z" fill="#A7A9AC"/>
</svg>
