<svg width="45" height="49" viewBox="0 0 45 49" fill="none" xmlns="http://www.w3.org/2000/svg">
<path d="M43.5645 28.4602C44.9957 16.4133 42.8769 8.80772 39.0551 5.36773L39.0571 5.36573C32.8887 -0.508835 12.0569 -1.37833 4.67723 5.62958C1.36317 9.05757 0.195853 14.0886 0.0679274 20.317C-0.0599979 26.5473 -0.211909 38.2185 10.6637 41.3847H10.6737L10.6637 46.2198C10.6637 46.2198 10.5898 48.1787 11.841 48.5725C13.2722 49.0362 13.9198 48.1267 18.3712 42.8098C25.8149 43.4555 31.5315 41.9763 32.1812 41.7605C33.6843 41.2568 42.1893 40.1314 43.5645 28.4602ZM19.1048 39.4078C19.1048 39.4078 14.3936 45.2824 12.9284 46.8075C12.4487 47.3032 11.923 47.2572 11.931 46.2738C11.931 45.6282 11.967 38.2465 11.967 38.2465C2.74636 35.6041 3.29004 25.6659 3.38999 20.4669C3.48993 15.2659 4.44137 11.0064 7.24773 8.13811C13.7219 2.06766 31.9853 3.42487 36.6385 7.79831C42.3272 12.8414 40.3024 27.089 40.3144 27.5747C39.1451 37.3171 32.2531 37.9347 30.9859 38.3564C30.4442 38.5363 25.4171 39.8296 19.1048 39.4078Z" fill="url(#paint0_linear)"/>
<path d="M21.711 9.2793C20.9414 9.2793 20.9414 10.4786 21.711 10.4886C27.6815 10.5346 32.5986 14.6961 32.6526 22.3297C32.6526 23.1352 33.8319 23.1252 33.8219 22.3197H33.8199C33.7559 14.0945 28.387 9.32527 21.711 9.2793Z" fill="url(#paint1_linear)"/>
<path d="M29.5646 21.0636C29.5466 21.8592 30.724 21.8972 30.734 21.0916C30.8319 16.5563 28.0355 12.8205 22.7806 12.4267C22.0111 12.3707 21.9311 13.58 22.6987 13.636C27.256 13.9818 29.6566 17.092 29.5646 21.0636Z" fill="url(#paint2_linear)"/>
<path d="M28.305 26.2247C27.3176 25.653 26.3122 26.0088 25.8964 26.5705L25.0269 27.6958C24.5852 28.2675 23.7597 28.1915 23.7597 28.1915C17.7352 26.5984 16.1241 20.2941 16.1241 20.2941C16.1241 20.2941 16.0502 19.4406 16.6018 18.9829L17.6892 18.0834C18.2329 17.6517 18.5767 16.6123 18.023 15.5909C16.5439 12.9184 15.5505 11.997 15.0448 11.2894C14.5131 10.6238 13.7135 10.4739 12.882 10.9236H12.864C11.135 11.935 9.24215 13.8279 9.8478 15.7768C10.8812 17.8316 12.7801 24.3817 18.8325 29.3308C21.6769 31.6715 26.1782 34.0701 28.0891 34.6237L28.1071 34.6517C29.99 35.2794 31.8209 33.3125 32.7984 31.5316V31.5176C33.2321 30.6561 33.0882 29.8405 32.4546 29.3069C31.3312 28.2115 29.6362 27.0022 28.305 26.2247Z" fill="url(#paint3_linear)"/>
<path d="M23.604 16.8883C25.5249 17.0002 26.4563 18.0037 26.5563 20.0644C26.5922 20.87 27.7616 20.814 27.7256 20.0085C27.5976 17.3181 26.1945 15.8189 23.6679 15.679C22.8984 15.633 22.8264 16.8423 23.604 16.8883Z" fill="url(#paint4_linear)"/>
<defs>
<linearGradient id="paint0_linear" x1="39.7697" y1="22.2934" x2="-9.46848" y2="-28.5079" gradientUnits="userSpaceOnUse">
<stop stop-color="#52D8C5"/>
<stop offset="1" stop-color="#C6FFB2"/>
</linearGradient>
<linearGradient id="paint1_linear" x1="27.4779" y1="9.2793" x2="27.4779" y2="22.9288" gradientUnits="userSpaceOnUse">
<stop stop-color="#52D8C5"/>
<stop offset="1" stop-color="#C6FFB2"/>
</linearGradient>
<linearGradient id="paint2_linear" x1="26.449" y1="12.4248" x2="26.449" y2="21.6783" gradientUnits="userSpaceOnUse">
<stop stop-color="#52D8C5"/>
<stop offset="1" stop-color="#C6FFB2"/>
</linearGradient>
<linearGradient id="paint3_linear" x1="28.8274" y1="22.7185" x2="2.25445" y2="-7.40459" gradientUnits="userSpaceOnUse">
<stop stop-color="#52D8C5"/>
<stop offset="1" stop-color="#C6FFB2"/>
</linearGradient>
<linearGradient id="paint4_linear" x1="25.3905" y1="15.6777" x2="25.3905" y2="20.6413" gradientUnits="userSpaceOnUse">
<stop stop-color="#52D8C5"/>
<stop offset="1" stop-color="#C6FFB2"/>
</linearGradient>
</defs>
</svg>
