<svg width="49" height="35" viewBox="0 0 49 35" fill="none" xmlns="http://www.w3.org/2000/svg">
<path d="M46.9492 5.54367L47.0092 5.93544C46.4296 3.87864 44.8645 2.29157 42.8756 1.7139L42.8337 1.70391C39.0938 0.688504 24.0446 0.688504 24.0446 0.688504C24.0446 0.688504 9.03341 0.668516 5.25562 1.70391C3.22881 2.29157 1.66173 3.87864 1.09206 5.89346L1.08206 5.93544C-0.315119 13.2332 -0.325113 22.002 1.14403 29.8155L1.08206 29.4197C1.66173 31.4765 3.22681 33.0636 5.21565 33.6412L5.25762 33.6512C8.99344 34.6686 24.0466 34.6686 24.0466 34.6686C24.0466 34.6686 39.0559 34.6686 42.8357 33.6512C44.8645 33.0636 46.4316 31.4765 47.0012 29.4617L47.0112 29.4197C47.6468 26.0257 48.0106 22.12 48.0106 18.1303C48.0106 17.9844 48.0106 17.8365 48.0086 17.6886C48.0106 17.5526 48.0106 17.3907 48.0106 17.2288C48.0106 13.2372 47.6468 9.33145 46.9492 5.54367ZM19.2434 24.9763V10.3988L31.7681 17.6986L19.2434 24.9763Z" fill="url(#paint0_linear)"/>
<defs>
<linearGradient id="paint0_linear" x1="36.0177" y1="30.7977" x2="-15.5651" y2="-23.1297" gradientUnits="userSpaceOnUse">
<stop stop-color="#52D8C5"/>
<stop offset="1" stop-color="#C6FFB2"/>
</linearGradient>
</defs>
</svg>
