<svg width="159" height="31" fill="none" xmlns="http://www.w3.org/2000/svg"><path d="M30.793 6.408a11.242 11.242 0 00-7.635 3.007 11.458 11.458 0 00-3.616 7.429c-.027-.32-.043-.642-.043-.968a11.466 11.466 0 013.472-7.758 11.245 11.245 0 017.821-3.174c2.915 0 5.717 1.138 7.822 3.174a11.466 11.466 0 013.471 7.758c0 .326-.013.648-.04.968a11.458 11.458 0 00-3.616-7.429 11.242 11.242 0 00-7.636-3.007z" fill="url(#paint0_linear)"/><path d="M37.953 18.035a9.57 9.57 0 00-2.396-6.338A9.392 9.392 0 0029.59 8.58c.35-.04.701-.06 1.053-.06a9.34 9.34 0 013.65.682 9.415 9.415 0 013.107 2.053 9.52 9.52 0 012.08 3.105 9.597 9.597 0 010 7.351 9.523 9.523 0 01-2.08 3.105 9.415 9.415 0 01-3.106 2.053 9.34 9.34 0 01-3.65.681c-.353 0-.704-.02-1.054-.061a9.39 9.39 0 005.969-3.115 9.567 9.567 0 002.395-6.34z" fill="url(#paint1_linear)"/><path d="M11.594 8.766S8.447 3.492 4.57 1.118c-.825-.384-.08-4.95 7.024 7.648z" fill="url(#paint2_linear)"/><path d="M7.96 5.593S4.017 2.64.418 2.066C-.316 2.034-1.14-1.592 7.96 5.593z" fill="url(#paint3_linear)"/><path d="M34.184 28.53a15.648 15.648 0 01-5.652 1.263h-.605a15.823 15.823 0 01-10.465-3.998 16.119 16.119 0 01-5.272-9.965 16.085 16.085 0 00-3.463-8.644A15.78 15.78 0 004.312 4.96a16.018 16.018 0 014.296 4.78 16.178 16.178 0 012.16 6.766 16.119 16.119 0 005.267 9.969 15.824 15.824 0 0010.463 4.003h.603a15.708 15.708 0 005.668-1.272c.592-.244 1.13-.502 1.612-.753l-.197.078z" fill="url(#paint4_linear)"/><path d="M16.006 17.047c0-4.003 1.575-7.841 4.377-10.671a14.869 14.869 0 0111.729-4.377 13.856 13.856 0 00-8.504.68 14.02 14.02 0 00-6.53 5.542 14.231 14.231 0 00-2.128 8.342 14.204 14.204 0 003.066 8.039 15.135 15.135 0 01-2.01-7.555z" fill="url(#paint5_linear)"/><path d="M4.283 4.97s8.876 1.954 11.021 13.013c2.145 11.06 16.82 12.546 22.252 8.395-2.308 1.37-8.735 7.366-18.88.418a17.378 17.378 0 01-2.531-2.283c-1.44-1.628-2.668-3.64-3.165-5.326-.278-.807-.5-1.633-.662-2.47-.76-4.275-1.551-8.55-8.035-11.747z" fill="url(#paint6_linear)"/><path d="M36.35 27.131c.323-.198.61-.383.859-.54a12.585 12.585 0 01-6.402 1.764 12.584 12.584 0 01-6.407-1.743 12.746 12.746 0 01-4.66-4.772 12.906 12.906 0 01-1.633-6.496 12.9 12.9 0 011.838-6.44 12.734 12.734 0 014.808-4.619 12.579 12.579 0 0112.802.435 13.662 13.662 0 00-5.498-2.74 14.826 14.826 0 00-7.955 1.64 14.994 14.994 0 00-5.325 4.66 15.183 15.183 0 00-2.619 6.607 15.24 15.24 0 00.669 7.084c4.11 6.804 14.29 7.854 19.523 5.16z" fill="url(#paint7_linear)"/><path d="M30.794 5.365a11.245 11.245 0 017.823 3.187 11.467 11.467 0 013.46 7.771v-.456a11.466 11.466 0 00-3.472-7.757 11.245 11.245 0 00-7.822-3.174 11.245 11.245 0 00-7.82 3.174 11.466 11.466 0 00-3.473 7.757v.456a11.466 11.466 0 013.467-7.778 11.245 11.245 0 017.837-3.18z" fill="url(#paint8_linear)"/><path d="M30.64 8.522h-.49a9.384 9.384 0 016.333 2.957 9.567 9.567 0 012.584 6.546 9.567 9.567 0 01-2.584 6.546 9.383 9.383 0 01-6.334 2.956c.163 0 .326.014.491.014 1.25.02 2.49-.213 3.65-.682a9.415 9.415 0 003.107-2.053 9.521 9.521 0 002.08-3.105 9.598 9.598 0 000-7.35 9.521 9.521 0 00-2.08-3.106 9.413 9.413 0 00-3.107-2.053 9.34 9.34 0 00-3.65-.681v.011z" fill="url(#paint9_linear)"/><path d="M56.79 18.403c.01.832-.119 1.66-.379 2.45a5.642 5.642 0 01-1.087 1.922 4.975 4.975 0 01-1.705 1.26 5.326 5.326 0 01-2.229.457 5.541 5.541 0 01-2.285-.457 4.83 4.83 0 01-1.707-1.26 5.612 5.612 0 01-1.072-1.922 7.757 7.757 0 01-.37-2.45c-.01-.837.12-1.67.384-2.464a5.745 5.745 0 011.087-1.929 4.917 4.917 0 011.703-1.258 5.4 5.4 0 012.244-.457 5.483 5.483 0 012.272.457 4.92 4.92 0 011.705 1.258c.48.565.843 1.221 1.07 1.93.254.795.379 1.627.37 2.463zm-1.407 0a6.534 6.534 0 00-.308-2.091 4.321 4.321 0 00-.85-1.51 3.54 3.54 0 00-1.273-.913 4.138 4.138 0 00-3.165 0 3.53 3.53 0 00-1.275.913c-.382.44-.67.953-.847 1.51a6.465 6.465 0 00-.31 2.09 6.36 6.36 0 00.312 2.085 4.41 4.41 0 00.854 1.507c.351.397.786.71 1.273.913.503.206 1.04.31 1.583.306a4 4 0 001.569-.306 3.517 3.517 0 001.266-.913 4.33 4.33 0 00.85-1.507 6.49 6.49 0 00.325-2.084h-.005zm5.439 1.001v4.865h-1.418V12.52h3.014c.433-.004.866.015 1.297.057.33.033.657.092.977.178.725.17 1.376.57 1.858 1.142.442.57.67 1.28.645 2.004.006.436-.07.868-.226 1.274-.145.365-.36.697-.636.975a3.323 3.323 0 01-.979.685 5.03 5.03 0 01-1.263.386v.037l3.443 5.022h-1.418l-3.583-4.876h-1.711zm0-5.594v4.304h1.395c.434 0 .804-.016 1.112-.046a3.81 3.81 0 00.825-.158 2.258 2.258 0 001.13-.728c.287-.375.434-.841.414-1.315a1.905 1.905 0 00-.382-1.217 2.074 2.074 0 00-1.035-.662 3.931 3.931 0 00-.747-.141 11.31 11.31 0 00-1.105-.044l-1.607.007zm10.537 9.166h5.966v1.292H69.94V12.52H77v1.292h-5.65v3.794h5.016v1.29H71.36v4.08zm14.369-3.913a104.049 104.049 0 012.111 3.196h.055a51.112 51.112 0 01-.113-3.495V12.52h1.424v11.748h-1.418l-4.564-6.55a82.246 82.246 0 01-2.111-3.196h-.055c.077 1.065.115 2.315.113 3.749v5.997h-1.41V12.52h1.408l4.56 6.543zm15.854-.722a7.16 7.16 0 01-.256 1.932 5.235 5.235 0 01-.761 1.628c-.345.49-.775.914-1.269 1.25a6.005 6.005 0 01-1.779.818 6.898 6.898 0 01-1.259.229c-.452.042-.942.064-1.47.066h-2.63V12.52h2.66c.528 0 1.017.02 1.47.064.426.039.848.115 1.26.228a6.109 6.109 0 011.778.808c.49.328.918.744 1.261 1.226.341.484.594 1.025.749 1.598.168.618.251 1.257.246 1.897zm-1.408 0c0-1.13-.247-2.044-.74-2.74a3.954 3.954 0 00-2.123-1.492 5.668 5.668 0 00-1.182-.229 15.72 15.72 0 00-1.47-.061h-1.084v9.166h1.085c.545 0 1.035-.02 1.47-.06.4-.033.797-.11 1.181-.227a3.872 3.872 0 002.123-1.537c.493-.738.74-1.678.74-2.82zm2.758 5.927l4.747-11.748h1.225l4.748 11.748h-1.538l-1.39-3.538h-4.876l-1.388 3.538h-1.528zm5.337-9.922a119.42 119.42 0 01-1.487 3.986l-.434 1.105h3.856l-.441-1.105a100.874 100.874 0 01-1.458-3.986h-.036zm7.191 9.923v-1.712h1.653v1.712h-1.653zm4.661-.001V12.52h1.418v11.748h-1.418zm5.79 0h-1.418V12.52h6.94v1.292h-5.522v3.794h4.896v1.29h-4.896v5.372zm6.386.001v-1.712h1.652v1.712h-1.652zm9.161-1.055a3.82 3.82 0 001.13-.149c.308-.09.598-.233.857-.422.241-.178.447-.4.608-.653a3.21 3.21 0 00.375-.847c.06-.211.101-.428.122-.646a7.01 7.01 0 00.034-.685v-7.293h1.418v7.254c0 .274-.016.562-.043.858a6.052 6.052 0 01-.14.836 4.55 4.55 0 01-.496 1.203 3.4 3.4 0 01-.861.957 4.048 4.048 0 01-1.273.632 5.955 5.955 0 01-1.745.229 6.043 6.043 0 01-1.677-.21 4.043 4.043 0 01-1.239-.585 3.277 3.277 0 01-.848-.888 4.458 4.458 0 01-.513-1.119 5.678 5.678 0 01-.188-.94 9.03 9.03 0 01-.056-.973V12.52h1.417v7.287c.002.272.021.544.057.813.033.258.093.512.178.758a2.703 2.703 0 001.013 1.345 3.24 3.24 0 001.87.49zm6.277 1.054l4.748-11.748h1.227l4.748 11.748h-1.54l-1.39-3.538h-4.881l-1.395 3.538h-1.517zm5.34-9.922c-.52 1.461-1.016 2.79-1.487 3.986l-.435 1.105h3.855l-.452-1.105a102.492 102.492 0 01-1.458-3.986h-.023z" fill="#5A3A55"/><defs><linearGradient id="paint0_linear" x1="26.243" y1="19.142" x2="45.575" y2="6.583" gradientUnits="userSpaceOnUse"><stop stop-color="#C6FFB2"/><stop offset=".12" stop-color="#A9F5B7"/><stop offset=".27" stop-color="#8AEBBC"/><stop offset=".43" stop-color="#71E2C0"/><stop offset=".6" stop-color="#60DDC3"/><stop offset=".78" stop-color="#55D9C4"/><stop offset="1" stop-color="#52D8C5"/></linearGradient><linearGradient id="paint1_linear" x1="37.135" y1="34.641" x2="34.253" y2="8.525" gradientUnits="userSpaceOnUse"><stop stop-color="#C6FFB2"/><stop offset="1" stop-color="#52D8C5"/></linearGradient><linearGradient id="paint2_linear" x1="7.948" y1="0" x2="11.644" y2="9.25" gradientUnits="userSpaceOnUse"><stop stop-color="#C6FFB2"/><stop offset="1" stop-color="#52D8C5"/></linearGradient><linearGradient id="paint3_linear" x1="-3.228" y1="-.693" x2="8.033" y2="8.537" gradientUnits="userSpaceOnUse"><stop stop-color="#C6FFB2"/><stop offset="1" stop-color="#C6FFB2" stop-opacity="0"/><stop offset="1" stop-color="#52D8C5"/></linearGradient><linearGradient id="paint4_linear" x1="22.948" y1="21.448" x2="2.647" y2="10.421" gradientUnits="userSpaceOnUse"><stop stop-color="#9F4B81"/><stop offset="1" stop-color="#5A3A55"/></linearGradient><linearGradient id="paint5_linear" x1="22.684" y1="9.321" x2="12.367" y2="23.212" gradientUnits="userSpaceOnUse"><stop offset=".05" stop-color="#A04B82"/><stop offset=".06" stop-color="#9F4B81"/><stop offset=".6" stop-color="#6D3F61"/><stop offset=".87" stop-color="#5A3A55"/></linearGradient><linearGradient id="paint6_linear" x1="51.779" y1="38.332" x2="1.153" y2=".709" gradientUnits="userSpaceOnUse"><stop stop-color="#5A3A55"/><stop offset="1" stop-color="#A04B82"/></linearGradient><linearGradient id="paint7_linear" x1="16.006" y1="28.503" x2="37.064" y2="2.103" gradientUnits="userSpaceOnUse"><stop stop-color="#9F4B81"/><stop offset="1" stop-color="#5A3A55"/></linearGradient><linearGradient id="paint8_linear" x1="42.077" y1="4.381" x2="19.425" y2="14.944" gradientUnits="userSpaceOnUse"><stop stop-color="#C6FFB2"/><stop offset="1" stop-color="#52D8C5"/></linearGradient><linearGradient id="paint9_linear" x1="41.345" y1="8.51" x2="32.898" y2="31.739" gradientUnits="userSpaceOnUse"><stop stop-color="#C6FFB2"/><stop offset="1" stop-color="#52D8C5"/></linearGradient></defs></svg>